####
#
# OBJ File Generated by Meshlab
#
####
# Object floor.obj
#
# Vertices: 4
# Faces: 2
#
####
mtllib ./floor.obj.mtl

vn 0.000000 -0.000000 2.000000
v 159.153885 159.153870 0.000007 0.749020 0.749020 0.749020
vn 0.000000 -0.000000 1.000000
v -159.153854 159.153900 0.000007 0.749020 0.749020 0.749020
vn 0.000000 -0.000000 1.000000
v 159.153854 -159.153900 -0.000007 0.749020 0.749020 0.749020
vn 0.000000 -0.000000 2.000000
v -159.153885 -159.153870 -0.000007 0.749020 0.749020 0.749020
# 4 vertices, 0 vertices normals


usemtl material_0
vt 0.997642 0.999023
vt 0.000977 0.999023
vt 0.000977 0.002358
f 1/1/1 2/2/2 4/3/4
vt 0.999023 0.997642
vt 0.002358 0.000977
vt 0.999023 0.000977
f 1/4/1 4/5/4 3/6/3
# 2 faces, 6 coords texture

# End of File
