####
#
# OBJ File Generated by Meshlab
#
####
# Object straight_track2.obj
#
# Vertices: 134
# Faces: 264
#
####
mtllib ./straight_track2.obj.mtl

vn -3.866473 4.238821 1.141152
v -0.587087 1.624663 0.604357 0.752941 0.752941 0.752941
vn -1.164504 2.624968 2.300963
v -0.587087 1.624663 1.230769 0.752941 0.752941 0.752941
vn 4.712389 1.570796 1.570797
v -0.000001 1.624663 0.604357 0.752941 0.752941 0.752941
vn 1.570796 1.570796 1.570796
v -0.000001 1.624663 1.230769 0.752941 0.752941 0.752941
vn 4.712389 -1.570796 1.570797
v -0.000001 2.375275 0.604357 0.752941 0.752941 0.752941
vn 1.570799 -1.570800 1.570796
v -0.000001 2.375275 1.230769 0.752941 0.752941 0.752941
vn -3.697679 -4.437810 1.081926
v -0.587087 2.375275 0.604357 0.752941 0.752941 0.752941
vn -1.160195 -2.629734 2.310597
v -0.587087 2.375275 1.230769 0.752941 0.752941 0.752941
vn -2.019953 2.375376 3.376925
v -0.697912 1.503242 1.230769 0.752941 0.752941 0.752941
vn -1.361534 2.805224 3.376147
v -0.835586 1.413402 1.230769 0.752941 0.752941 0.752941
vn 1.892547 -1.490188 2.067528
v -0.000001 1.076892 1.230769 0.752941 0.752941 0.752941
vn -0.616488 3.056681 3.375588
v -0.991355 1.360854 1.230769 0.752941 0.752941 0.752941
vn 0.167789 3.113747 3.375200
v -1.155316 1.348941 1.230769 0.752941 0.752941 0.752941
vn -1.892547 -1.490189 2.067532
v -21.665186 1.076892 1.230769 0.752941 0.752941 0.752941
vn 0.941403 2.972779 3.375036
v -1.317045 1.378418 1.230769 0.752941 0.752941 0.752941
vn 1.655157 2.642748 3.375040
v -1.466259 1.447413 1.230769 0.752941 0.752941 0.752941
vn -1.570796 -1.570796 4.712385
v -21.665186 1.651253 1.230769 0.752941 0.752941 0.752941
vn 2.263631 2.144647 3.375252
v -1.593472 1.551538 1.230769 0.752941 0.752941 0.752941
vn 2.728140 1.510156 3.375661
v -1.690596 1.684174 1.230769 0.752941 0.752941 0.752941
vn 3.019129 0.779648 3.376262
v -1.751455 1.836887 1.230769 0.752941 0.752941 0.752941
vn 3.118099 -0.000416 3.377066
v -1.772181 1.999969 1.230769 0.752941 0.752941 0.752941
vn -1.570798 1.570794 4.712385
v -21.665186 2.348686 1.230769 0.752941 0.752941 0.752941
vn 3.018768 -0.780411 3.378054
v -1.751455 2.163051 1.230769 0.752941 0.752941 0.752941
vn 2.727465 -1.510722 3.379248
v -1.690596 2.315764 1.230769 0.752941 0.752941 0.752941
vn 2.262731 -2.144906 3.380636
v -1.593472 2.448400 1.230769 0.752941 0.752941 0.752941
vn 1.654152 -2.642668 3.382218
v -1.466259 2.552525 1.230769 0.752941 0.752941 0.752941
vn -1.892544 1.490186 2.067529
v -21.665186 2.923046 1.230770 0.752941 0.752941 0.752941
vn 0.940441 -2.972248 3.384001
v -1.317045 2.621520 1.230770 0.752941 0.752941 0.752941
vn 0.167004 -3.112824 3.385983
v -1.155316 2.650998 1.230770 0.752941 0.752941 0.752941
vn 1.892545 1.490188 2.067529
v -0.000001 2.923046 1.230770 0.752941 0.752941 0.752941
vn -0.616953 -3.055440 3.388148
v -0.991355 2.639084 1.230770 0.752941 0.752941 0.752941
vn -1.361551 -2.803777 3.390517
v -0.835586 2.586537 1.230770 0.752941 0.752941 0.752941
vn -2.019489 -2.373901 3.393125
v -0.697912 2.496697 1.230769 0.752941 0.752941 0.752941
vn -3.116110 -0.000001 2.886681
v -23.410618 1.999969 1.230769 0.752941 0.752941 0.752941
vn -3.015632 0.785206 2.887564
v -23.390408 2.157677 1.230769 0.752941 0.752941 0.752941
vn -3.015633 -0.785205 2.887566
v -23.390408 1.842262 1.230769 0.752941 0.752941 0.752941
vn 1.185193 -2.601665 4.000548
v -22.266436 1.651253 1.230769 0.752941 0.752941 0.752941
vn -2.720134 -1.520694 2.889440
v -23.331068 1.694753 1.230769 0.752941 0.752941 0.752941
vn -2.248711 -2.157809 2.891396
v -23.236427 1.566983 1.230769 0.752941 0.752941 0.752941
vn 2.064809 -2.335433 2.900007
v -22.371178 1.531629 1.230769 0.752941 0.752941 0.752941
vn -1.631834 -2.655353 2.893083
v -23.112627 1.467214 1.230769 0.752941 0.752941 0.752941
vn 1.408876 -2.780663 2.898830
v -22.502707 1.442292 1.230769 0.752941 0.752941 0.752941
vn -0.909301 -2.981249 2.894670
v -22.967667 1.401898 1.230769 0.752941 0.752941 0.752941
vn 0.661866 -3.046022 2.897569
v -22.652517 1.389021 1.230769 0.752941 0.752941 0.752941
vn -0.127880 -3.114350 2.896177
v -22.810919 1.375260 1.230769 0.752941 0.752941 0.752941
vn 1.185192 2.601665 4.000547
v -22.266436 2.348686 1.230769 0.752941 0.752941 0.752941
vn -2.720133 1.520697 2.889443
v -23.331068 2.305185 1.230769 0.752941 0.752941 0.752941
vn -2.248709 2.157810 2.891397
v -23.236427 2.432955 1.230769 0.752941 0.752941 0.752941
vn 2.064804 2.335436 2.900001
v -22.371178 2.468310 1.230769 0.752941 0.752941 0.752941
vn -1.631838 2.655351 2.893088
v -23.112627 2.532724 1.230769 0.752941 0.752941 0.752941
vn 1.408872 2.780667 2.898839
v -22.502707 2.557646 1.230769 0.752941 0.752941 0.752941
vn -0.909308 2.981197 2.894677
v -22.967667 2.598040 1.230770 0.752941 0.752941 0.752941
vn 0.661874 3.045971 2.897574
v -22.652517 2.610917 1.230770 0.752941 0.752941 0.752941
vn -0.127877 3.114348 2.896164
v -22.810919 2.624679 1.230770 0.752941 0.752941 0.752941
vn -4.390638 -1.490188 2.067526
v -21.665186 0.974328 0.923077 0.752941 0.752941 0.752941
vn -4.712389 -1.570796 -1.570796
v -21.665186 1.651253 0.615385 0.752941 0.752941 0.752941
vn -1.570796 -1.570796 -1.570796
v -21.665186 -0.000031 0.000000 0.752941 0.752941 0.752941
vn -1.570795 1.570797 -1.570796
v -21.665186 3.999969 0.000001 0.752941 0.752941 0.752941
vn -4.390639 1.490190 2.067523
v -21.665186 0.410226 0.923077 0.752941 0.752941 0.752941
vn -1.570796 -1.570797 1.570793
v -21.665186 -0.000031 1.230769 0.752941 0.752941 0.752941
vn -1.892547 1.490188 2.067526
v -21.665186 0.307662 1.230769 0.752941 0.752941 0.752941
vn -4.712389 1.570796 -1.570795
v -21.665186 2.348686 0.615385 0.752941 0.752941 0.752941
vn -4.390642 1.490187 2.067522
v -21.665186 3.025610 0.923077 0.752941 0.752941 0.752941
vn -4.390637 -1.490191 2.067525
v -21.665186 3.589713 0.923078 0.752941 0.752941 0.752941
vn -1.570796 1.570796 1.570796
v -21.665186 3.999969 1.230770 0.752941 0.752941 0.752941
vn -1.892546 -1.490190 2.067522
v -21.665186 3.692277 1.230770 0.752941 0.752941 0.752941
vn 4.390638 -1.490189 2.067524
v -0.000001 0.974328 0.923077 0.752941 0.752941 0.752941
vn 4.390638 1.490188 2.067526
v -0.000001 0.410226 0.923077 0.752941 0.752941 0.752941
vn 1.892547 1.490190 2.067523
v -0.000001 0.307662 1.230769 0.752941 0.752941 0.752941
vn 1.570796 -1.570796 -1.570796
v -0.000001 -0.000031 0.000000 0.752941 0.752941 0.752941
vn 1.570796 -1.570796 1.570796
v -0.000001 -0.000031 1.230769 0.752941 0.752941 0.752941
vn 4.390642 1.490186 2.067524
v -0.000001 3.025610 0.923077 0.752941 0.752941 0.752941
vn 4.390637 -1.490192 2.067523
v -0.000001 3.589713 0.923078 0.752941 0.752941 0.752941
vn 1.892546 -1.490188 2.067525
v -0.000001 3.692277 1.230770 0.752941 0.752941 0.752941
vn 1.570796 1.570797 -1.570796
v -0.000001 3.999969 0.000001 0.752941 0.752941 0.752941
vn 1.570796 1.570797 1.570793
v -0.000001 3.999969 1.230770 0.752941 0.752941 0.752941
vn 3.799206 -4.322017 -1.112870
v -22.266436 1.651253 0.615385 0.752941 0.752941 0.752941
vn 2.922478 -1.103378 -3.378832
v -22.199146 1.782647 0.615385 0.752941 0.752941 0.752941
vn 3.101513 -0.375557 -3.381310
v -22.164536 1.926157 0.615385 0.752941 0.752941 0.752941
vn 3.101513 0.375558 -3.381312
v -22.164536 2.073782 0.615385 0.752941 0.752941 0.752941
vn 2.922480 1.103376 -3.378819
v -22.199146 2.217291 0.615385 0.752941 0.752941 0.752941
vn 3.799198 4.322028 -1.112872
v -22.266436 2.348686 0.615385 0.752941 0.752941 0.752941
vn 2.708427 1.552962 -2.919604
v -22.243927 2.312585 0.522354 0.752941 0.752941 0.752941
vn 3.018012 0.802365 -2.919605
v -22.181465 2.161791 0.522354 0.752941 0.752941 0.752941
vn 3.123084 -0.000002 -2.919134
v -22.160156 1.999969 0.522354 0.752941 0.752941 0.752941
vn 3.018013 -0.802363 -2.919611
v -22.181465 1.838148 0.522354 0.752941 0.752941 0.752941
vn 2.708429 -1.552961 -2.919612
v -22.243927 1.687354 0.522354 0.752941 0.752941 0.752941
vn 2.187435 -2.223558 -2.915865
v -22.343287 1.557864 0.522354 0.752941 0.752941 0.752941
vn 1.557720 -2.698722 -2.893868
v -22.472776 1.458504 0.522354 0.752941 0.752941 0.752941
vn 0.806107 -3.009827 -2.892610
v -22.623568 1.396043 0.522354 0.752941 0.752941 0.752941
vn -0.000408 -3.115782 -2.891253
v -22.785387 1.374738 0.522354 0.752941 0.752941 0.752941
vn -0.806857 -3.009358 -2.889777
v -22.947218 1.396043 0.522354 0.752941 0.752941 0.752941
vn -1.558211 -2.697845 -2.888232
v -23.098007 1.458504 0.522354 0.752941 0.752941 0.752941
vn -2.203289 -2.202475 -2.886513
v -23.227497 1.557864 0.522354 0.752941 0.752941 0.752941
vn -2.698137 -1.557059 -2.884766
v -23.326857 1.687354 0.522354 0.752941 0.752941 0.752941
vn -3.009045 -0.805520 -2.882821
v -23.389318 1.838148 0.522354 0.752941 0.752941 0.752941
vn -3.114924 -0.000001 -2.881921
v -23.410618 1.999969 0.522354 0.752941 0.752941 0.752941
vn -3.009045 0.805519 -2.882819
v -23.389318 2.161791 0.522354 0.752941 0.752941 0.752941
vn -2.698133 1.557063 -2.884761
v -23.326857 2.312585 0.522354 0.752941 0.752941 0.752941
vn -2.203290 2.202476 -2.886521
v -23.227497 2.442074 0.522354 0.752941 0.752941 0.752941
vn -1.558215 2.697840 -2.888223
v -23.098007 2.541435 0.522354 0.752941 0.752941 0.752941
vn -0.806850 3.009359 -2.889772
v -22.947218 2.603896 0.522354 0.752941 0.752941 0.752941
vn -0.000406 3.115785 -2.891265
v -22.785387 2.625200 0.522354 0.752941 0.752941 0.752941
vn 0.806099 3.009829 -2.892602
v -22.623568 2.603896 0.522354 0.752941 0.752941 0.752941
vn 1.557723 2.698719 -2.893862
v -22.472776 2.541435 0.522354 0.752941 0.752941 0.752941
vn 2.187437 2.223558 -2.915876
v -22.343287 2.442074 0.522354 0.752941 0.752941 0.752941
vn -1.997389 -2.390366 2.883432
v -0.702389 2.500469 0.522354 0.752941 0.752941 0.752941
vn 2.391950 -1.997345 2.895987
v -1.620706 2.417786 0.522354 0.752941 0.752941 0.752941
vn -2.542697 -1.800934 2.887391
v -0.587087 2.375275 0.522354 0.752941 0.752941 0.752941
vn 1.793361 -2.548295 2.894472
v -1.495513 2.533088 0.522354 0.752941 0.752941 0.752941
vn -1.310194 -2.826437 2.886430
v -0.846165 2.591553 0.522354 0.752941 0.752941 0.752941
vn 1.072583 -2.925499 2.892761
v -1.344743 2.612059 0.522354 0.752941 0.752941 0.752941
vn -0.533971 -3.069454 2.888731
v -1.008616 2.642323 0.522354 0.752941 0.752941 0.752941
vn 0.278767 -3.103253 2.890848
v -1.178672 2.649317 0.522354 0.752941 0.752941 0.752941
vn 2.827532 -1.310193 2.897294
v -1.711791 2.274011 0.522354 0.752941 0.752941 0.752941
vn -2.928750 -1.069686 2.900030
v -0.508117 2.224506 0.522354 0.752941 0.752941 0.752941
vn 3.070399 -0.533682 2.898415
v -1.762560 2.111560 0.522354 0.752941 0.752941 0.752941
vn -3.108195 -0.266126 2.905629
v -0.470859 2.058434 0.522354 0.752941 0.752941 0.752941
vn 3.103981 0.279247 2.899327
v -1.769554 1.941504 0.522354 0.752941 0.752941 0.752941
vn -3.071450 0.552413 2.906284
v -0.477853 1.888379 0.522354 0.752941 0.752941 0.752941
vn 2.925985 1.073169 2.900048
v -1.732296 1.775433 0.522354 0.752941 0.752941 0.752941
vn -2.824263 1.329515 2.904075
v -0.528622 1.725928 0.522354 0.752941 0.752941 0.752941
vn 2.548532 1.793973 2.900549
v -1.653326 1.624663 0.522354 0.752941 0.752941 0.752941
vn -2.367263 2.034350 2.946607
v -0.619707 1.582152 0.522354 0.752941 0.752941 0.752941
vn 1.997347 2.392517 2.900868
v -1.538024 1.499470 0.522354 0.752941 0.752941 0.752941
vn -1.794195 2.548256 2.899447
v -0.744900 1.466850 0.522354 0.752941 0.752941 0.752941
vn 1.310014 2.827978 2.900986
v -1.394248 1.408385 0.522354 0.752941 0.752941 0.752941
vn -1.073491 2.925874 2.900132
v -0.895670 1.387879 0.522354 0.752941 0.752941 0.752941
vn 0.533395 3.070676 2.900909
v -1.231797 1.357616 0.522354 0.752941 0.752941 0.752941
vn -0.279579 3.104065 2.900610
v -1.061741 1.350621 0.522354 0.752941 0.752941 0.752941
vn -2.902063 -1.142179 3.385029
v -0.511891 2.234539 0.604357 0.752941 0.752941 0.752941
vn -3.092916 -0.411358 3.382391
v -0.473132 2.079752 0.604357 0.752941 0.752941 0.752941
vn -3.101608 0.348767 3.384573
v -0.473132 1.920186 0.604357 0.752941 0.752941 0.752941
vn -2.924346 1.092712 3.389451
v -0.511891 1.765399 0.604357 0.752941 0.752941 0.752941
# 134 vertices, 0 vertices normals


usemtl material_0
vt 0.965500 0.406200
vt 1.000000 0.406200
f 1/1/1 2/1/2 3/2/3
f 3/2/3 2/1/2 4/2/4
vt 1.000000 0.593800
vt 0.965500 0.593800
f 5/3/5 6/3/6 7/4/7
f 7/4/7 6/3/6 8/4/8
vt 0.959000 0.375800
f 2/1/2 9/5/9 4/2/4
vt 0.950900 0.353400
f 4/2/4 9/5/9 10/6/10
vt 1.000000 0.269200
vt 0.941800 0.340200
f 11/7/11 10/6/10 12/8/12
vt 0.932200 0.337200
f 13/9/13 11/7/11 12/8/12
vt 0.102500 0.269200
f 13/9/13 14/10/14 11/7/11
vt 0.922700 0.344600
f 13/9/13 15/11/15 14/10/14
vt 0.913900 0.361900
f 14/10/14 15/11/15 16/12/16
vt 0.102500 0.412800
vt 0.906400 0.387900
f 17/13/17 16/12/16 18/14/18
vt 0.900700 0.421100
f 19/15/19 17/13/17 18/14/18
vt 0.897100 0.459200
f 19/15/19 20/16/20 17/13/17
vt 0.895900 0.500000
f 17/13/17 20/16/20 21/17/21
vt 0.102500 0.587200
vt 0.897100 0.540800
f 22/18/22 21/17/21 23/19/23
vt 0.900700 0.578900
f 24/20/24 22/18/22 23/19/23
vt 0.906400 0.612100
f 24/20/24 25/21/25 22/18/22
vt 0.913900 0.638100
f 22/18/22 25/21/25 26/22/26
vt 0.102500 0.730800
vt 0.922700 0.655400
f 27/23/27 26/22/26 28/24/28
vt 0.932200 0.662800
f 29/25/29 27/23/27 28/24/28
vt 1.000000 0.730800
f 29/25/29 30/26/30 27/23/27
vt 0.941800 0.659800
f 29/25/29 31/27/31 30/26/30
vt 0.950900 0.646600
f 30/26/30 31/27/31 32/28/32
vt 0.959000 0.624200
f 6/3/6 32/28/32 33/29/33
f 8/4/8 6/3/6 33/29/33
f 4/2/4 10/6/10 11/7/11
f 14/10/14 16/12/16 17/13/17
f 17/13/17 21/17/21 22/18/22
vt 0.000000 0.500000
vt 0.001200 0.539400
f 34/30/34 22/18/22 35/31/35
f 34/30/34 17/13/17 22/18/22
vt 0.001200 0.460600
f 34/30/34 36/32/36 17/13/17
vt 0.067200 0.412800
f 17/13/17 36/32/36 37/33/37
vt 0.004700 0.423700
f 37/33/37 36/32/36 38/34/38
vt 0.010200 0.391800
f 39/35/39 37/33/37 38/34/38
vt 0.061000 0.382900
f 39/35/39 40/36/40 37/33/37
vt 0.017500 0.366800
f 39/35/39 41/37/41 40/36/40
vt 0.053300 0.360600
f 40/36/40 41/37/41 42/38/42
vt 0.026000 0.350500
f 42/38/42 41/37/41 43/39/43
vt 0.044500 0.347300
vt 0.035200 0.343800
f 44/40/44 43/39/43 45/41/45
f 44/40/44 42/38/42 43/39/43
f 22/18/22 26/22/26 27/23/27
f 30/26/30 32/28/32 6/3/6
vt 0.067200 0.587200
f 22/18/22 46/42/46 35/31/35
vt 0.004700 0.576300
f 35/31/35 46/42/46 47/43/47
vt 0.010200 0.608200
f 47/43/47 46/42/46 48/44/48
vt 0.061000 0.617100
f 48/44/48 46/42/46 49/45/49
vt 0.017500 0.633200
vt 0.053300 0.639400
f 50/46/50 49/45/49 51/47/51
vt 0.026000 0.649500
vt 0.044500 0.652700
f 52/48/52 51/47/51 53/49/53
vt 0.035200 0.656200
f 54/50/54 52/48/52 53/49/53
f 48/44/48 49/45/49 50/46/50
f 50/46/50 51/47/51 52/48/52
vt 0.102500 0.243600
f 14/10/14 17/13/17 55/51/55
f 55/51/55 17/13/17 56/13/56
vt 0.102500 0.000000
vt 0.102500 1.000000
f 57/52/57 56/13/56 58/53/58
f 57/52/57 55/51/55 56/13/56
vt 0.102500 0.102600
f 57/52/57 59/54/59 55/51/55
f 57/52/57 60/52/60 59/54/59
vt 0.102500 0.076900
f 59/54/59 60/52/60 61/55/61
f 56/13/56 62/18/62 58/53/58
vt 0.102500 0.756400
f 58/53/58 62/18/62 63/56/63
vt 0.102500 0.897400
f 64/57/64 58/53/58 63/56/63
f 64/57/64 65/53/65 58/53/58
vt 0.102500 0.923100
f 64/57/64 66/58/66 65/53/65
f 62/18/62 22/18/22 63/56/63
f 63/56/63 22/18/22 27/23/27
vt 1.000000 0.243600
f 11/7/11 14/10/14 67/59/67
f 67/59/67 14/10/14 55/51/55
f 55/51/55 59/54/59 67/59/67
vt 1.000000 0.102600
f 67/59/67 59/54/59 68/60/68
vt 1.000000 0.076900
f 61/55/61 69/61/69 59/54/59
f 59/54/59 69/61/69 68/60/68
vt 1.000000 0.000000
f 57/52/57 70/62/70 60/52/60
f 60/52/60 70/62/70 71/62/71
f 71/62/71 69/61/69 60/52/60
f 60/52/60 69/61/69 61/55/61
vt 1.000000 0.756400
f 72/63/72 63/56/63 30/26/30
f 30/26/30 63/56/63 27/23/27
vt 1.000000 0.897400
f 72/63/72 73/64/73 63/56/63
f 63/56/63 73/64/73 64/57/64
f 64/57/64 73/64/73 66/58/66
vt 1.000000 0.923100
f 66/58/66 73/64/73 74/65/74
vt 1.000000 1.000000
f 75/66/75 58/53/58 76/66/76
f 76/66/76 58/53/58 65/53/65
f 65/53/65 66/58/66 76/66/76
f 76/66/76 66/58/66 74/65/74
vt 0.071100 0.445700
f 77/33/77 78/67/78 56/13/56
vt 0.073200 0.481500
f 56/13/56 78/67/78 79/68/79
vt 0.073200 0.518500
f 62/18/62 79/68/79 80/69/80
vt 0.071100 0.554300
f 81/70/81 62/18/62 80/69/80
f 81/70/81 82/42/82 62/18/62
f 56/13/56 79/68/79 62/18/62
f 46/42/46 22/18/22 82/42/82
f 82/42/82 22/18/22 62/18/62
f 17/13/17 37/33/37 56/13/56
f 56/13/56 37/33/37 77/33/77
vt 0.068500 0.578200
f 81/70/81 83/71/83 82/42/82
vt 0.072200 0.540500
f 81/70/81 84/72/84 83/71/83
f 81/70/81 80/69/80 84/72/84
vt 0.073400 0.500000
f 84/72/84 80/69/80 85/73/85
f 85/73/85 80/69/80 79/68/79
vt 0.072200 0.459500
f 86/74/86 79/68/79 78/67/78
vt 0.068500 0.421800
f 87/75/87 78/67/78 77/33/77
vt 0.062700 0.389500
f 88/76/88 77/33/77 37/33/37
f 40/36/40 88/76/88 37/33/37
vt 0.055100 0.364600
f 40/36/40 89/77/89 88/76/88
f 40/36/40 42/38/42 89/77/89
vt 0.046200 0.349000
f 89/77/89 42/38/42 90/78/90
f 90/78/90 42/38/42 44/40/44
vt 0.036700 0.343700
f 91/79/91 44/40/44 45/41/45
vt 0.027200 0.349000
f 92/80/92 45/41/45 43/39/43
vt 0.018400 0.364600
f 93/81/93 43/39/43 41/37/41
vt 0.010800 0.389500
f 94/82/94 41/37/41 39/35/39
vt 0.004900 0.421800
f 95/83/95 39/35/39 38/34/38
vt 0.001300 0.459500
f 96/84/96 38/34/38 36/32/36
f 97/30/97 36/32/36 34/30/34
f 35/31/35 97/30/97 34/30/34
vt 0.001300 0.540500
f 35/31/35 98/85/98 97/30/97
f 35/31/35 47/43/47 98/85/98
vt 0.004900 0.578200
f 98/85/98 47/43/47 99/86/99
f 99/86/99 47/43/47 48/44/48
vt 0.010800 0.610500
f 100/87/100 48/44/48 50/46/50
vt 0.018400 0.635400
f 101/88/101 50/46/50 52/48/52
vt 0.027200 0.651000
f 102/89/102 52/48/52 54/50/54
vt 0.036700 0.656300
f 103/90/103 54/50/54 53/49/53
vt 0.046200 0.651000
f 104/91/104 53/49/53 51/47/51
vt 0.055100 0.635400
f 105/92/105 51/47/51 49/45/49
vt 0.062700 0.610500
f 106/93/106 49/45/49 46/42/46
f 82/42/82 106/93/106 46/42/46
f 82/42/82 83/71/83 106/93/106
f 85/73/85 79/68/79 86/74/86
f 86/74/86 78/67/78 87/75/87
f 87/75/87 77/33/77 88/76/88
f 90/78/90 44/40/44 91/79/91
f 91/79/91 45/41/45 92/80/92
f 92/80/92 43/39/43 93/81/93
f 93/81/93 41/37/41 94/82/94
f 94/82/94 39/35/39 95/83/95
f 95/83/95 38/34/38 96/84/96
f 96/84/96 36/32/36 97/30/97
f 99/86/99 48/44/48 100/87/100
f 100/87/100 50/46/50 101/88/101
f 101/88/101 52/48/52 102/89/102
f 102/89/102 54/50/54 103/90/103
f 103/90/103 53/49/53 104/91/104
f 104/91/104 51/47/51 105/92/105
f 105/92/105 49/45/49 106/93/106
f 86/74/86 96/84/96 85/73/85
f 86/74/86 95/83/95 96/84/96
f 86/74/86 87/75/87 95/83/95
f 95/83/95 87/75/87 94/82/94
f 94/82/94 87/75/87 88/76/88
f 93/81/93 88/76/88 89/77/89
f 92/80/92 89/77/89 90/78/90
f 91/79/91 92/80/92 90/78/90
f 94/82/94 88/76/88 93/81/93
f 93/81/93 89/77/89 92/80/92
f 96/84/96 97/30/97 85/73/85
f 85/73/85 97/30/97 84/72/84
f 84/72/84 97/30/97 98/85/98
f 83/71/83 98/85/98 99/86/99
f 106/93/106 99/86/99 100/87/100
f 105/92/105 100/87/100 101/88/101
f 104/91/104 101/88/101 102/89/102
f 103/90/103 104/91/104 102/89/102
f 84/72/84 98/85/98 83/71/83
f 83/71/83 99/86/99 106/93/106
f 106/93/106 100/87/100 105/92/105
f 105/92/105 101/88/101 104/91/104
f 70/62/70 57/52/57 75/66/75
f 75/66/75 57/52/57 58/53/58
vt 0.958800 0.625100
vt 0.904800 0.604500
f 107/94/107 108/95/108 109/4/109
vt 0.912200 0.633300
f 107/94/107 110/96/110 108/95/108
vt 0.950300 0.647900
f 107/94/107 111/97/111 110/96/110
vt 0.921000 0.653000
f 110/96/110 111/97/111 112/98/112
vt 0.940800 0.660600
f 112/98/112 111/97/111 113/99/113
vt 0.930800 0.662300
f 114/100/114 112/98/112 113/99/113
vt 0.899500 0.568500
f 108/95/108 115/101/115 109/4/109
vt 0.970200 0.556100
f 109/4/109 115/101/115 116/102/116
vt 0.896500 0.527900
f 116/102/116 115/101/115 117/103/117
vt 0.972300 0.514600
vt 0.896100 0.485400
f 118/104/118 117/103/117 119/105/119
vt 0.971900 0.472100
vt 0.898300 0.443900
f 120/106/120 119/105/119 121/107/121
vt 0.969000 0.431500
vt 0.902900 0.406200
f 122/108/122 121/107/121 123/109/123
vt 0.963600 0.395500
vt 0.909700 0.374900
f 124/110/124 123/109/123 125/111/125
vt 0.956300 0.366700
vt 0.918100 0.352100
f 126/112/126 125/111/125 127/113/127
vt 0.947400 0.347000
vt 0.927700 0.339400
f 128/114/128 127/113/127 129/115/129
vt 0.937600 0.337700
f 130/116/130 128/114/128 129/115/129
f 116/102/116 117/103/117 118/104/118
f 118/104/118 119/105/119 120/106/120
f 120/106/120 121/107/121 122/108/122
f 122/108/122 123/109/123 124/110/124
f 124/110/124 125/111/125 126/112/126
f 126/112/126 127/113/127 128/114/128
vt 0.969900 0.558600
f 7/4/7 131/117/131 5/3/5
vt 0.972200 0.519900
f 5/3/5 131/117/131 132/118/132
vt 0.972200 0.480100
f 133/119/133 5/3/5 132/118/132
f 133/119/133 3/2/3 5/3/5
vt 0.969900 0.441400
f 133/119/133 134/120/134 3/2/3
f 3/2/3 134/120/134 1/1/1
f 116/102/116 131/117/131 109/4/109
f 116/102/116 132/118/132 131/117/131
f 116/102/116 118/104/118 132/118/132
f 132/118/132 118/104/118 133/119/133
f 133/119/133 118/104/118 120/106/120
f 134/120/134 120/106/120 122/108/122
f 1/1/1 122/108/122 124/110/124
f 2/1/2 124/110/124 9/5/9
f 2/1/2 1/1/1 124/110/124
f 133/119/133 120/106/120 134/120/134
f 134/120/134 122/108/122 1/1/1
f 124/110/124 126/112/126 9/5/9
f 9/5/9 126/112/126 10/6/10
f 10/6/10 126/112/126 128/114/128
f 12/8/12 128/114/128 130/116/130
f 13/9/13 130/116/130 129/115/129
f 15/11/15 129/115/129 127/113/127
f 16/12/16 127/113/127 125/111/125
f 18/14/18 125/111/125 123/109/123
f 19/15/19 123/109/123 121/107/121
f 20/16/20 121/107/121 119/105/119
f 21/17/21 119/105/119 117/103/117
f 23/19/23 117/103/117 115/101/115
f 24/20/24 115/101/115 108/95/108
f 25/21/25 108/95/108 110/96/110
f 26/22/26 110/96/110 112/98/112
f 28/24/28 112/98/112 114/100/114
f 29/25/29 114/100/114 113/99/113
f 31/27/31 113/99/113 111/97/111
f 32/28/32 111/97/111 107/94/107
f 33/29/33 107/94/107 7/4/7
f 8/4/8 33/29/33 7/4/7
f 10/6/10 128/114/128 12/8/12
f 12/8/12 130/116/130 13/9/13
f 13/9/13 129/115/129 15/11/15
f 15/11/15 127/113/127 16/12/16
f 16/12/16 125/111/125 18/14/18
f 18/14/18 123/109/123 19/15/19
f 19/15/19 121/107/121 20/16/20
f 20/16/20 119/105/119 21/17/21
f 21/17/21 117/103/117 23/19/23
f 23/19/23 115/101/115 24/20/24
f 24/20/24 108/95/108 25/21/25
f 25/21/25 110/96/110 26/22/26
f 26/22/26 112/98/112 28/24/28
f 28/24/28 114/100/114 29/25/29
f 29/25/29 113/99/113 31/27/31
f 31/27/31 111/97/111 32/28/32
f 107/94/107 109/4/109 7/4/7
f 7/4/7 109/4/109 131/117/131
f 33/29/33 32/28/32 107/94/107
f 3/2/3 70/62/70 5/3/5
f 3/2/3 68/60/68 70/62/70
f 3/2/3 67/59/67 68/60/68
f 3/2/3 4/2/4 67/59/67
f 67/59/67 4/2/4 11/7/11
f 69/61/69 71/62/71 68/60/68
f 68/60/68 71/62/71 70/62/70
f 70/62/70 75/66/75 5/3/5
f 5/3/5 75/66/75 73/64/73
f 72/63/72 5/3/5 73/64/73
f 72/63/72 6/3/6 5/3/5
f 72/63/72 30/26/30 6/3/6
f 75/66/75 76/66/76 73/64/73
f 73/64/73 76/66/76 74/65/74
# 264 faces, 120 coords texture

# End of File
